<svg xmlns="http://www.w3.org/2000/svg" viewBox="0 0 53 53" shape-rendering="crispEdges" role="img" aria-label="QR code"><rect width="53" height="53" fill="#fff"/><path d="M4 4h7v1h-7zM14 4h1v1h-1zM17 4h1v1h-1zM21 4h1v1h-1zM23 4h1v1h-1zM25 4h1v1h-1zM27 4h1v1h-1zM29 4h1v1h-1zM33 4h3v1h-3zM37 4h1v1h-1zM40 4h1v1h-1zM42 4h7v1h-7zM4 5h1v1h-1zM10 5h1v1h-1zM14 5h4v1h-4zM19 5h2v1h-2zM22 5h2v1h-2zM28 5h1v1h-1zM30 5h1v1h-1zM32 5h2v1h-2zM35 5h1v1h-1zM39 5h1v1h-1zM42 5h1v1h-1zM48 5h1v1h-1zM4 6h1v1h-1zM6 6h3v1h-3zM10 6h1v1h-1zM12 6h3v1h-3zM20 6h1v1h-1zM22 6h2v1h-2zM28 6h1v1h-1zM31 6h2v1h-2zM35 6h3v1h-3zM39 6h1v1h-1zM42 6h1v1h-1zM44 6h3v1h-3zM48 6h1v1h-1zM4 7h1v1h-1zM6 7h3v1h-3zM10 7h1v1h-1zM12 7h6v1h-6zM19 7h1v1h-1zM22 7h1v1h-1zM24 7h6v1h-6zM31 7h1v1h-1zM34 7h1v1h-1zM39 7h2v1h-2zM42 7h1v1h-1zM44 7h3v1h-3zM48 7h1v1h-1zM4 8h1v1h-1zM6 8h3v1h-3zM10 8h1v1h-1zM12 8h1v1h-1zM14 8h2v1h-2zM17 8h3v1h-3zM21 8h1v1h-1zM24 8h5v1h-5zM33 8h2v1h-2zM37 8h4v1h-4zM42 8h1v1h-1zM44 8h3v1h-3zM48 8h1v1h-1zM4 9h1v1h-1zM10 9h1v1h-1zM12 9h2v1h-2zM15 9h7v1h-7zM24 9h1v1h-1zM28 9h1v1h-1zM31 9h1v1h-1zM37 9h1v1h-1zM42 9h1v1h-1zM48 9h1v1h-1zM4 10h7v1h-7zM12 10h1v1h-1zM14 10h1v1h-1zM16 10h1v1h-1zM18 10h1v1h-1zM20 10h1v1h-1zM22 10h1v1h-1zM24 10h1v1h-1zM26 10h1v1h-1zM28 10h1v1h-1zM30 10h1v1h-1zM32 10h1v1h-1zM34 10h1v1h-1zM36 10h1v1h-1zM38 10h1v1h-1zM40 10h1v1h-1zM42 10h7v1h-7zM12 11h1v1h-1zM17 11h3v1h-3zM24 11h1v1h-1zM28 11h1v1h-1zM30 11h9v1h-9zM4 12h1v1h-1zM6 12h5v1h-5zM13 12h4v1h-4zM18 12h2v1h-2zM21 12h1v1h-1zM24 12h6v1h-6zM33 12h1v1h-1zM40 12h1v1h-1zM42 12h5v1h-5zM4 13h1v1h-1zM6 13h1v1h-1zM9 13h1v1h-1zM13 13h4v1h-4zM18 13h1v1h-1zM22 13h1v1h-1zM26 13h4v1h-4zM34 13h1v1h-1zM36 13h2v1h-2zM39 13h2v1h-2zM44 13h1v1h-1zM46 13h1v1h-1zM48 13h1v1h-1zM4 14h1v1h-1zM6 14h2v1h-2zM10 14h1v1h-1zM14 14h2v1h-2zM17 14h1v1h-1zM19 14h1v1h-1zM21 14h1v1h-1zM23 14h1v1h-1zM28 14h1v1h-1zM30 14h2v1h-2zM33 14h1v1h-1zM35 14h2v1h-2zM38 14h2v1h-2zM42 14h1v1h-1zM44 14h2v1h-2zM47 14h1v1h-1zM4 15h1v1h-1zM6 15h2v1h-2zM9 15h1v1h-1zM15 15h1v1h-1zM18 15h1v1h-1zM20 15h1v1h-1zM25 15h1v1h-1zM27 15h3v1h-3zM32 15h1v1h-1zM34 15h1v1h-1zM36 15h2v1h-2zM40 15h5v1h-5zM46 15h1v1h-1zM5 16h2v1h-2zM10 16h4v1h-4zM15 16h1v1h-1zM19 16h1v1h-1zM22 16h2v1h-2zM26 16h1v1h-1zM28 16h2v1h-2zM31 16h1v1h-1zM35 16h1v1h-1zM38 16h2v1h-2zM41 16h1v1h-1zM45 16h1v1h-1zM48 16h1v1h-1zM4 17h1v1h-1zM7 17h3v1h-3zM14 17h1v1h-1zM16 17h1v1h-1zM18 17h1v1h-1zM20 17h2v1h-2zM26 17h2v1h-2zM31 17h1v1h-1zM34 17h2v1h-2zM39 17h2v1h-2zM43 17h6v1h-6zM4 18h3v1h-3zM8 18h4v1h-4zM15 18h1v1h-1zM18 18h9v1h-9zM28 18h3v1h-3zM33 18h1v1h-1zM35 18h2v1h-2zM38 18h6v1h-6zM5 19h1v1h-1zM7 19h2v1h-2zM12 19h3v1h-3zM16 19h1v1h-1zM19 19h1v1h-1zM22 19h1v1h-1zM26 19h1v1h-1zM28 19h5v1h-5zM34 19h1v1h-1zM36 19h2v1h-2zM40 19h2v1h-2zM43 19h4v1h-4zM5 20h4v1h-4zM10 20h1v1h-1zM18 20h3v1h-3zM22 20h1v1h-1zM25 20h1v1h-1zM27 20h4v1h-4zM35 20h1v1h-1zM39 20h1v1h-1zM41 20h1v1h-1zM45 20h1v1h-1zM4 21h4v1h-4zM11 21h4v1h-4zM19 21h1v1h-1zM25 21h2v1h-2zM29 21h1v1h-1zM33 21h2v1h-2zM37 21h1v1h-1zM39 21h3v1h-3zM44 21h1v1h-1zM46 21h1v1h-1zM6 22h1v1h-1zM10 22h2v1h-2zM18 22h1v1h-1zM22 22h1v1h-1zM24 22h8v1h-8zM35 22h1v1h-1zM38 22h3v1h-3zM42 22h3v1h-3zM46 22h2v1h-2zM4 23h2v1h-2zM9 23h1v1h-1zM11 23h1v1h-1zM17 23h1v1h-1zM22 23h2v1h-2zM25 23h1v1h-1zM27 23h10v1h-10zM38 23h1v1h-1zM40 23h2v1h-2zM44 23h1v1h-1zM46 23h1v1h-1zM48 23h1v1h-1zM4 24h10v1h-10zM15 24h3v1h-3zM19 24h2v1h-2zM22 24h1v1h-1zM24 24h5v1h-5zM30 24h1v1h-1zM33 24h2v1h-2zM37 24h2v1h-2zM40 24h6v1h-6zM4 25h3v1h-3zM8 25h1v1h-1zM12 25h1v1h-1zM14 25h1v1h-1zM18 25h4v1h-4zM23 25h2v1h-2zM28 25h7v1h-7zM36 25h1v1h-1zM40 25h1v1h-1zM44 25h1v1h-1zM47 25h2v1h-2zM4 26h5v1h-5zM10 26h1v1h-1zM12 26h2v1h-2zM16 26h1v1h-1zM19 26h2v1h-2zM22 26h3v1h-3zM26 26h1v1h-1zM28 26h1v1h-1zM31 26h1v1h-1zM39 26h2v1h-2zM42 26h1v1h-1zM44 26h3v1h-3zM5 27h1v1h-1zM7 27h2v1h-2zM12 27h3v1h-3zM16 27h2v1h-2zM19 27h1v1h-1zM21 27h4v1h-4zM28 27h5v1h-5zM34 27h1v1h-1zM36 27h3v1h-3zM40 27h1v1h-1zM44 27h3v1h-3zM48 27h1v1h-1zM4 28h1v1h-1zM6 28h1v1h-1zM8 28h6v1h-6zM16 28h1v1h-1zM18 28h1v1h-1zM22 28h7v1h-7zM30 28h1v1h-1zM37 28h8v1h-8zM4 29h1v1h-1zM7 29h3v1h-3zM11 29h2v1h-2zM14 29h1v1h-1zM17 29h7v1h-7zM26 29h2v1h-2zM29 29h1v1h-1zM34 29h1v1h-1zM41 29h1v1h-1zM43 29h1v1h-1zM45 29h2v1h-2zM48 29h1v1h-1zM4 30h2v1h-2zM10 30h1v1h-1zM12 30h3v1h-3zM16 30h2v1h-2zM22 30h1v1h-1zM25 30h3v1h-3zM30 30h1v1h-1zM32 30h2v1h-2zM37 30h3v1h-3zM41 30h1v1h-1zM43 30h2v1h-2zM46 30h2v1h-2zM4 31h3v1h-3zM9 31h1v1h-1zM15 31h2v1h-2zM18 31h3v1h-3zM22 31h3v1h-3zM27 31h2v1h-2zM32 31h6v1h-6zM39 31h2v1h-2zM42 31h1v1h-1zM46 31h1v1h-1zM5 32h2v1h-2zM9 32h3v1h-3zM13 32h3v1h-3zM19 32h1v1h-1zM22 32h2v1h-2zM27 32h5v1h-5zM38 32h1v1h-1zM41 32h5v1h-5zM4 33h1v1h-1zM6 33h3v1h-3zM12 33h4v1h-4zM21 33h2v1h-2zM24 33h6v1h-6zM31 33h1v1h-1zM34 33h1v1h-1zM41 33h1v1h-1zM45 33h4v1h-4zM5 34h1v1h-1zM7 34h6v1h-6zM14 34h1v1h-1zM16 34h4v1h-4zM21 34h1v1h-1zM23 34h1v1h-1zM25 34h1v1h-1zM28 34h1v1h-1zM31 34h1v1h-1zM35 34h1v1h-1zM37 34h2v1h-2zM40 34h2v1h-2zM43 34h2v1h-2zM46 34h1v1h-1zM4 35h1v1h-1zM6 35h3v1h-3zM12 35h1v1h-1zM14 35h2v1h-2zM20 35h1v1h-1zM23 35h2v1h-2zM27 35h1v1h-1zM29 35h1v1h-1zM31 35h2v1h-2zM34 35h1v1h-1zM36 35h2v1h-2zM39 35h1v1h-1zM41 35h3v1h-3zM45 35h2v1h-2zM5 36h2v1h-2zM9 36h4v1h-4zM14 36h1v1h-1zM17 36h2v1h-2zM20 36h1v1h-1zM23 36h3v1h-3zM29 36h1v1h-1zM33 36h3v1h-3zM37 36h1v1h-1zM40 36h1v1h-1zM44 36h1v1h-1zM5 37h1v1h-1zM11 37h1v1h-1zM14 37h5v1h-5zM20 37h1v1h-1zM23 37h1v1h-1zM26 37h2v1h-2zM29 37h1v1h-1zM31 37h2v1h-2zM34 37h2v1h-2zM37 37h1v1h-1zM39 37h1v1h-1zM41 37h1v1h-1zM46 37h3v1h-3zM8 38h1v1h-1zM10 38h2v1h-2zM13 38h2v1h-2zM17 38h3v1h-3zM21 38h2v1h-2zM25 38h1v1h-1zM27 38h1v1h-1zM30 38h1v1h-1zM33 38h1v1h-1zM35 38h1v1h-1zM37 38h2v1h-2zM40 38h1v1h-1zM43 38h2v1h-2zM46 38h1v1h-1zM5 39h4v1h-4zM12 39h2v1h-2zM15 39h1v1h-1zM18 39h2v1h-2zM27 39h2v1h-2zM32 39h5v1h-5zM39 39h1v1h-1zM42 39h1v1h-1zM46 39h2v1h-2zM4 40h1v1h-1zM7 40h2v1h-2zM10 40h1v1h-1zM12 40h1v1h-1zM14 40h2v1h-2zM17 40h2v1h-2zM21 40h1v1h-1zM24 40h6v1h-6zM34 40h1v1h-1zM37 40h2v1h-2zM40 40h5v1h-5zM47 40h1v1h-1zM12 41h1v1h-1zM15 41h1v1h-1zM21 41h1v1h-1zM24 41h1v1h-1zM28 41h1v1h-1zM33 41h3v1h-3zM37 41h1v1h-1zM40 41h1v1h-1zM44 41h5v1h-5zM4 42h7v1h-7zM13 42h1v1h-1zM15 42h6v1h-6zM23 42h2v1h-2zM26 42h1v1h-1zM28 42h2v1h-2zM35 42h4v1h-4zM40 42h1v1h-1zM42 42h1v1h-1zM44 42h3v1h-3zM4 43h1v1h-1zM10 43h1v1h-1zM12 43h1v1h-1zM15 43h2v1h-2zM18 43h1v1h-1zM20 43h1v1h-1zM22 43h3v1h-3zM28 43h5v1h-5zM34 43h5v1h-5zM40 43h1v1h-1zM44 43h4v1h-4zM4 44h1v1h-1zM6 44h3v1h-3zM10 44h1v1h-1zM12 44h1v1h-1zM15 44h1v1h-1zM20 44h2v1h-2zM24 44h5v1h-5zM30 44h1v1h-1zM34 44h1v1h-1zM37 44h1v1h-1zM40 44h6v1h-6zM4 45h1v1h-1zM6 45h3v1h-3zM10 45h1v1h-1zM12 45h3v1h-3zM16 45h2v1h-2zM20 45h3v1h-3zM24 45h2v1h-2zM29 45h1v1h-1zM31 45h2v1h-2zM34 45h1v1h-1zM36 45h1v1h-1zM39 45h1v1h-1zM41 45h5v1h-5zM47 45h2v1h-2zM4 46h1v1h-1zM6 46h3v1h-3zM10 46h1v1h-1zM12 46h1v1h-1zM15 46h1v1h-1zM20 46h1v1h-1zM23 46h2v1h-2zM27 46h1v1h-1zM30 46h3v1h-3zM35 46h4v1h-4zM40 46h1v1h-1zM42 46h1v1h-1zM45 46h1v1h-1zM47 46h1v1h-1zM4 47h1v1h-1zM10 47h1v1h-1zM14 47h5v1h-5zM20 47h1v1h-1zM22 47h1v1h-1zM24 47h2v1h-2zM32 47h2v1h-2zM35 47h2v1h-2zM44 47h3v1h-3zM4 48h7v1h-7zM12 48h2v1h-2zM15 48h6v1h-6zM25 48h1v1h-1zM27 48h3v1h-3zM31 48h1v1h-1zM33 48h3v1h-3zM39 48h2v1h-2zM42 48h1v1h-1zM44 48h2v1h-2zM47 48h1v1h-1z" fill="#000"/></svg>
